<mxfile host="65bd71144e">
    <diagram id="TlOhdIhIMrRRWUpW2aSm" name="Страница 1">
        <mxGraphModel dx="470" dy="318" grid="1" gridSize="10" guides="1" tooltips="1" connect="1" arrows="1" fold="1" page="1" pageScale="1" pageWidth="827" pageHeight="1169" math="0" shadow="0">
            <root>
                <mxCell id="0"/>
                <mxCell id="1" parent="0"/>
                <mxCell id="2" value="&lt;div style=&quot;color: rgb(212 , 212 , 212) ; background-color: rgb(30 , 30 , 30) ; font-family: &amp;#34;consolas&amp;#34; , &amp;#34;courier new&amp;#34; , monospace ; font-size: 14px ; line-height: 19px&quot;&gt;&lt;div&gt;&lt;span style=&quot;color: #6796e6&quot;&gt;1.&lt;/span&gt; пользователь: Ф.И.О., дата рождения, курящий/некурящий, телефон, емейл;&lt;/div&gt;&lt;div&gt;&lt;span style=&quot;color: #6796e6&quot;&gt;2.&lt;/span&gt; столик: количество мест, категория;&lt;/div&gt;&lt;div&gt;&lt;span style=&quot;color: #6796e6&quot;&gt;3.&lt;/span&gt; заказ: пользователь, столик, количество гостей, время заказа;&lt;/div&gt;&lt;div&gt;&lt;span style=&quot;color: #6796e6&quot;&gt;4.&lt;/span&gt; схема столиков: зоны размещения, зона для курящих/не курящих;&lt;/div&gt;&lt;div&gt;&lt;br&gt;&lt;/div&gt;&lt;/div&gt;" style="text;html=1;align=center;verticalAlign=middle;resizable=0;points=[];autosize=1;strokeColor=none;fillColor=none;" parent="1" vertex="1">
                    <mxGeometry x="70" width="640" height="100" as="geometry"/>
                </mxCell>
                <mxCell id="3" value="Table" style="swimlane;fontStyle=1;align=center;verticalAlign=top;childLayout=stackLayout;horizontal=1;startSize=26;horizontalStack=0;resizeParent=1;resizeParentMax=0;resizeLast=0;collapsible=1;marginBottom=0;" parent="1" vertex="1">
                    <mxGeometry x="580" y="964" width="170" height="140" as="geometry"/>
                </mxCell>
                <mxCell id="4" value="#Size: int;&#10;#placeType: String;&#10;#Number: int" style="text;strokeColor=none;fillColor=none;align=left;verticalAlign=top;spacingLeft=4;spacingRight=4;overflow=hidden;rotatable=0;points=[[0,0.5],[1,0.5]];portConstraint=eastwest;" parent="3" vertex="1">
                    <mxGeometry y="26" width="170" height="44" as="geometry"/>
                </mxCell>
                <mxCell id="5" value="" style="line;strokeWidth=1;fillColor=none;align=left;verticalAlign=middle;spacingTop=-1;spacingLeft=3;spacingRight=3;rotatable=0;labelPosition=right;points=[];portConstraint=eastwest;" parent="3" vertex="1">
                    <mxGeometry y="70" width="170" height="8" as="geometry"/>
                </mxCell>
                <mxCell id="6" value="+ Table (int size, &#10;String placeType, int number): void&#10;+ getNumber(): int" style="text;strokeColor=none;fillColor=none;align=left;verticalAlign=top;spacingLeft=4;spacingRight=4;overflow=hidden;rotatable=0;points=[[0,0.5],[1,0.5]];portConstraint=eastwest;" parent="3" vertex="1">
                    <mxGeometry y="78" width="170" height="62" as="geometry"/>
                </mxCell>
                <mxCell id="7" value="User" style="swimlane;fontStyle=1;align=center;verticalAlign=top;childLayout=stackLayout;horizontal=1;startSize=26;horizontalStack=0;resizeParent=1;resizeParentMax=0;resizeLast=0;collapsible=1;marginBottom=0;" parent="1" vertex="1">
                    <mxGeometry x="104" y="660" width="170" height="210" as="geometry"/>
                </mxCell>
                <mxCell id="8" value="# Name: String&#10;# Birthdate: Date;&#10;# Smoke: boolean;&#10;#Phone: int;&#10;#Email: String;" style="text;strokeColor=none;fillColor=none;align=left;verticalAlign=top;spacingLeft=4;spacingRight=4;overflow=hidden;rotatable=0;points=[[0,0.5],[1,0.5]];portConstraint=eastwest;" parent="7" vertex="1">
                    <mxGeometry y="26" width="170" height="94" as="geometry"/>
                </mxCell>
                <mxCell id="9" value="" style="line;strokeWidth=1;fillColor=none;align=left;verticalAlign=middle;spacingTop=-1;spacingLeft=3;spacingRight=3;rotatable=0;labelPosition=right;points=[];portConstraint=eastwest;" parent="7" vertex="1">
                    <mxGeometry y="120" width="170" height="8" as="geometry"/>
                </mxCell>
                <mxCell id="10" value="+ User(String name, &#10;Date birthdate, &#10;bool smoke, int Phone, &#10;String Email): void" style="text;strokeColor=none;fillColor=none;align=left;verticalAlign=top;spacingLeft=4;spacingRight=4;overflow=hidden;rotatable=0;points=[[0,0.5],[1,0.5]];portConstraint=eastwest;" parent="7" vertex="1">
                    <mxGeometry y="128" width="170" height="82" as="geometry"/>
                </mxCell>
                <mxCell id="11" value="Order" style="swimlane;fontStyle=1;align=center;verticalAlign=top;childLayout=stackLayout;horizontal=1;startSize=26;horizontalStack=0;resizeParent=1;resizeParentMax=0;resizeLast=0;collapsible=1;marginBottom=0;" parent="1" vertex="1">
                    <mxGeometry x="600" y="660" width="170" height="210" as="geometry"/>
                </mxCell>
                <mxCell id="12" value="#user:  User&#10;#table: Table&#10;#guests: int&#10;#timeOrder: dataTime&#10;" style="text;strokeColor=none;fillColor=none;align=left;verticalAlign=top;spacingLeft=4;spacingRight=4;overflow=hidden;rotatable=0;points=[[0,0.5],[1,0.5]];portConstraint=eastwest;" parent="11" vertex="1">
                    <mxGeometry y="26" width="170" height="84" as="geometry"/>
                </mxCell>
                <mxCell id="13" value="" style="line;strokeWidth=1;fillColor=none;align=left;verticalAlign=middle;spacingTop=-1;spacingLeft=3;spacingRight=3;rotatable=0;labelPosition=right;points=[];portConstraint=eastwest;" parent="11" vertex="1">
                    <mxGeometry y="110" width="170" height="8" as="geometry"/>
                </mxCell>
                <mxCell id="14" value="+ Order (User user, &#10;Table table, int guests, &#10;dataTime timeOrder): void&#10;+ toString(): String" style="text;strokeColor=none;fillColor=none;align=left;verticalAlign=top;spacingLeft=4;spacingRight=4;overflow=hidden;rotatable=0;points=[[0,0.5],[1,0.5]];portConstraint=eastwest;" parent="11" vertex="1">
                    <mxGeometry y="118" width="170" height="92" as="geometry"/>
                </mxCell>
                <mxCell id="15" value="TableDiagram" style="swimlane;fontStyle=1;align=center;verticalAlign=top;childLayout=stackLayout;horizontal=1;startSize=26;horizontalStack=0;resizeParent=1;resizeParentMax=0;resizeLast=0;collapsible=1;marginBottom=0;" parent="1" vertex="1">
                    <mxGeometry x="300" y="964" width="170" height="180" as="geometry"/>
                </mxCell>
                <mxCell id="16" value="#location: &#10;        hashSet&lt;String, Table&gt;&#10;#smokeLocation: String" style="text;strokeColor=none;fillColor=none;align=left;verticalAlign=top;spacingLeft=4;spacingRight=4;overflow=hidden;rotatable=0;points=[[0,0.5],[1,0.5]];portConstraint=eastwest;" parent="15" vertex="1">
                    <mxGeometry y="26" width="170" height="64" as="geometry"/>
                </mxCell>
                <mxCell id="17" value="" style="line;strokeWidth=1;fillColor=none;align=left;verticalAlign=middle;spacingTop=-1;spacingLeft=3;spacingRight=3;rotatable=0;labelPosition=right;points=[];portConstraint=eastwest;" parent="15" vertex="1">
                    <mxGeometry y="90" width="170" height="8" as="geometry"/>
                </mxCell>
                <mxCell id="18" value="+ TableDiagramm (): void&#10;+ getLocation(int Number): &#10;String&#10;+showDiagram(): &#10;             domenModek.drawio" style="text;strokeColor=none;fillColor=none;align=left;verticalAlign=top;spacingLeft=4;spacingRight=4;overflow=hidden;rotatable=0;points=[[0,0.5],[1,0.5]];portConstraint=eastwest;" parent="15" vertex="1">
                    <mxGeometry y="98" width="170" height="82" as="geometry"/>
                </mxCell>
                <mxCell id="23" value="IPresenter" style="swimlane;fontStyle=1;align=center;verticalAlign=top;childLayout=stackLayout;horizontal=1;startSize=26;horizontalStack=0;resizeParent=1;resizeParentMax=0;resizeLast=0;collapsible=1;marginBottom=0;" parent="1" vertex="1">
                    <mxGeometry x="89" y="240" width="170" height="106" as="geometry"/>
                </mxCell>
                <mxCell id="25" value="" style="line;strokeWidth=1;fillColor=none;align=left;verticalAlign=middle;spacingTop=-1;spacingLeft=3;spacingRight=3;rotatable=0;labelPosition=right;points=[];portConstraint=eastwest;" parent="23" vertex="1">
                    <mxGeometry y="26" width="170" height="8" as="geometry"/>
                </mxCell>
                <mxCell id="26" value="+ getData();&#10;+ createUser();&#10;+ createOrder();&#10;+ removeOrder();" style="text;strokeColor=none;fillColor=none;align=left;verticalAlign=top;spacingLeft=4;spacingRight=4;overflow=hidden;rotatable=0;points=[[0,0.5],[1,0.5]];portConstraint=eastwest;" parent="23" vertex="1">
                    <mxGeometry y="34" width="170" height="72" as="geometry"/>
                </mxCell>
                <mxCell id="27" value="IView" style="swimlane;fontStyle=1;align=center;verticalAlign=top;childLayout=stackLayout;horizontal=1;startSize=26;horizontalStack=0;resizeParent=1;resizeParentMax=0;resizeLast=0;collapsible=1;marginBottom=0;" parent="1" vertex="1">
                    <mxGeometry x="329" y="240" width="170" height="96" as="geometry"/>
                </mxCell>
                <mxCell id="29" value="" style="line;strokeWidth=1;fillColor=none;align=left;verticalAlign=middle;spacingTop=-1;spacingLeft=3;spacingRight=3;rotatable=0;labelPosition=right;points=[];portConstraint=eastwest;" parent="27" vertex="1">
                    <mxGeometry y="26" width="170" height="8" as="geometry"/>
                </mxCell>
                <mxCell id="30" value="+ showTables();&#10;+ getUserInfo();&#10;&#10;&#10;&#10;" style="text;strokeColor=none;fillColor=none;align=left;verticalAlign=top;spacingLeft=4;spacingRight=4;overflow=hidden;rotatable=0;points=[[0,0.5],[1,0.5]];portConstraint=eastwest;" parent="27" vertex="1">
                    <mxGeometry y="34" width="170" height="62" as="geometry"/>
                </mxCell>
                <mxCell id="31" value="IModel" style="swimlane;fontStyle=1;align=center;verticalAlign=top;childLayout=stackLayout;horizontal=1;startSize=26;horizontalStack=0;resizeParent=1;resizeParentMax=0;resizeLast=0;collapsible=1;marginBottom=0;" parent="1" vertex="1">
                    <mxGeometry x="569" y="240" width="170" height="170" as="geometry"/>
                </mxCell>
                <mxCell id="32" value="+ User &#10;+ Table&#10;+ Order&#10;+ TableDiagram&#10;" style="text;strokeColor=none;fillColor=none;align=left;verticalAlign=top;spacingLeft=4;spacingRight=4;overflow=hidden;rotatable=0;points=[[0,0.5],[1,0.5]];portConstraint=eastwest;" parent="31" vertex="1">
                    <mxGeometry y="26" width="170" height="84" as="geometry"/>
                </mxCell>
                <mxCell id="33" value="" style="line;strokeWidth=1;fillColor=none;align=left;verticalAlign=middle;spacingTop=-1;spacingLeft=3;spacingRight=3;rotatable=0;labelPosition=right;points=[];portConstraint=eastwest;" parent="31" vertex="1">
                    <mxGeometry y="110" width="170" height="8" as="geometry"/>
                </mxCell>
                <mxCell id="34" value="+ loadTables();&#10;+ bookTable();&#10;+ changeTable();&#10;&#10;" style="text;strokeColor=none;fillColor=none;align=left;verticalAlign=top;spacingLeft=4;spacingRight=4;overflow=hidden;rotatable=0;points=[[0,0.5],[1,0.5]];portConstraint=eastwest;fontColor=#F0F0F0;" parent="31" vertex="1">
                    <mxGeometry y="118" width="170" height="52" as="geometry"/>
                </mxCell>
                <mxCell id="39" style="edgeStyle=none;html=1;entryX=0;entryY=0.5;entryDx=0;entryDy=0;exitX=1;exitY=0.5;exitDx=0;exitDy=0;" parent="1" edge="1">
                    <mxGeometry relative="1" as="geometry">
                        <mxPoint x="259.0000000000001" y="288" as="sourcePoint"/>
                        <mxPoint x="329" y="288" as="targetPoint"/>
                    </mxGeometry>
                </mxCell>
                <mxCell id="40" value="" style="edgeStyle=none;html=1;exitX=0;exitY=0.5;exitDx=0;exitDy=0;" parent="1" source="30" edge="1">
                    <mxGeometry relative="1" as="geometry">
                        <mxPoint x="330" y="354" as="sourcePoint"/>
                        <mxPoint x="260" y="305" as="targetPoint"/>
                    </mxGeometry>
                </mxCell>
                <mxCell id="44" style="edgeStyle=none;html=1;entryX=0.502;entryY=1.039;entryDx=0;entryDy=0;entryPerimeter=0;" parent="1" source="26" target="34" edge="1">
                    <mxGeometry relative="1" as="geometry">
                        <mxPoint x="654" y="416" as="targetPoint"/>
                        <Array as="points">
                            <mxPoint x="174" y="436"/>
                            <mxPoint x="411" y="436"/>
                            <mxPoint x="654" y="436"/>
                        </Array>
                    </mxGeometry>
                </mxCell>
                <mxCell id="47" value="&lt;font color=&quot;#f0f0f0&quot; style=&quot;font-size: 20px&quot;&gt;MVP - модель приложения&amp;nbsp;&lt;/font&gt;" style="text;html=1;align=center;verticalAlign=middle;resizable=0;points=[];autosize=1;fillColor=#000000;fontColor=#333333;strokeColor=#666666;gradientColor=none;" parent="1" vertex="1">
                    <mxGeometry x="279" y="180" width="270" height="20" as="geometry"/>
                </mxCell>
                <mxCell id="48" value="&lt;font color=&quot;#f0f0f0&quot; style=&quot;font-size: 20px&quot;&gt;Диаграмма компонентов&lt;/font&gt;" style="text;html=1;align=center;verticalAlign=middle;resizable=0;points=[];autosize=1;fillColor=#000000;fontColor=#333333;strokeColor=#666666;" parent="1" vertex="1">
                    <mxGeometry x="289" y="585" width="250" height="20" as="geometry"/>
                </mxCell>
                <mxCell id="50" value="" style="edgeStyle=none;html=1;fontSize=20;fontColor=#F0F0F0;exitX=1;exitY=0.5;exitDx=0;exitDy=0;" parent="1" source="8" edge="1">
                    <mxGeometry relative="1" as="geometry">
                        <mxPoint x="199" y="974" as="sourcePoint"/>
                        <mxPoint x="600" y="733" as="targetPoint"/>
                    </mxGeometry>
                </mxCell>
                <mxCell id="59" value="в заказ вводится &#10;информация о &#10;пользователе" style="text;strokeColor=none;fillColor=none;align=left;verticalAlign=top;spacingLeft=4;spacingRight=4;overflow=hidden;rotatable=0;points=[[0,0.5],[1,0.5]];portConstraint=eastwest;fontSize=10;" parent="1" vertex="1">
                    <mxGeometry x="410" y="680" width="126" height="50" as="geometry"/>
                </mxCell>
                <mxCell id="58" value="" style="edgeStyle=none;html=1;fontSize=20;fontColor=#F0F0F0;entryX=0.001;entryY=0.764;entryDx=0;entryDy=0;entryPerimeter=0;exitX=1;exitY=0.5;exitDx=0;exitDy=0;" parent="1" source="16" target="4" edge="1">
                    <mxGeometry relative="1" as="geometry">
                        <mxPoint x="530" y="1024" as="sourcePoint"/>
                        <mxPoint x="370" y="1050" as="targetPoint"/>
                    </mxGeometry>
                </mxCell>
                <mxCell id="61" value="в заказ &#10;вводится &#10;инф-ия о &#10;выбранном &#10;столе" style="text;strokeColor=none;fillColor=none;align=left;verticalAlign=top;spacingLeft=4;spacingRight=4;overflow=hidden;rotatable=0;points=[[0,0.5],[1,0.5]];portConstraint=eastwest;fontSize=10;" parent="1" vertex="1">
                    <mxGeometry x="635" y="884" width="60" height="80" as="geometry"/>
                </mxCell>
                <mxCell id="62" value="выбирается &#10;стол из &#10;схемы &#10;столов" style="text;strokeColor=none;fillColor=none;align=left;verticalAlign=top;spacingLeft=4;spacingRight=4;overflow=hidden;rotatable=0;points=[[0,0.5],[1,0.5]];portConstraint=eastwest;fontSize=10;" parent="1" vertex="1">
                    <mxGeometry x="490" y="964" width="70" height="60" as="geometry"/>
                </mxCell>
                <mxCell id="63" value="" style="edgeStyle=none;html=1;fontSize=20;fontColor=#F0F0F0;exitX=0.25;exitY=0;exitDx=0;exitDy=0;entryX=0.136;entryY=1.024;entryDx=0;entryDy=0;entryPerimeter=0;" parent="1" source="3" target="14" edge="1">
                    <mxGeometry relative="1" as="geometry">
                        <mxPoint x="284" y="839" as="sourcePoint"/>
                        <mxPoint x="653" y="880" as="targetPoint"/>
                    </mxGeometry>
                </mxCell>
            </root>
        </mxGraphModel>
    </diagram>
</mxfile>